<?xml version="1.0" standalone="no"?>
<!DOCTYPE svg PUBLIC "-//W3C//DTD SVG 20010904//EN"
 "http://www.w3.org/TR/2001/REC-SVG-20010904/DTD/svg10.dtd">
<svg version="1.0" xmlns="http://www.w3.org/2000/svg"
 width="180.000000pt" height="180.000000pt" viewBox="0 0 180.000000 180.000000"
 preserveAspectRatio="xMidYMid meet">
<metadata>
Created by potrace 1.14, written by Peter Selinger 2001-2017
</metadata>
<g transform="translate(0.000000,180.000000) scale(0.100000,-0.100000)"
fill="#000000" stroke="none">
<path d="M1012 1712 c-35 -14 -48 -14 -74 -4 -21 8 -36 8 -42 2 -13 -13 -53
-13 -61 0 -3 6 -16 10 -28 10 -20 -1 -21 -2 -4 -14 15 -12 13 -14 -25 -19 -23
-3 -49 -14 -57 -24 -9 -11 -33 -31 -53 -47 -21 -15 -38 -32 -38 -38 0 -6 -17
-30 -38 -52 -22 -23 -47 -64 -56 -92 -10 -27 -24 -60 -32 -74 -40 -71 -54
-113 -64 -194 -6 -49 -17 -103 -24 -121 -9 -22 -11 -46 -6 -81 5 -27 6 -60 4
-74 -2 -14 -1 -19 2 -12 3 6 10 12 16 12 7 0 8 -17 3 -47 -5 -27 -7 -58 -7
-70 1 -12 -3 -25 -8 -28 -6 -3 -11 2 -11 12 -1 10 -5 -6 -10 -36 -5 -30 -15
-61 -21 -68 -9 -11 -8 -17 3 -24 11 -7 11 -9 -3 -9 -11 0 -18 -8 -18 -19 0
-10 -3 -33 -6 -50 -6 -27 -3 -33 14 -38 17 -4 22 -16 27 -62 4 -31 13 -78 22
-105 15 -46 14 -90 -3 -176 -6 -26 -1 -30 93 -76 l98 -49 105 0 c144 1 178 24
141 97 -14 28 -22 34 -61 38 -160 19 -251 108 -214 212 18 51 41 70 77 63 36
-6 35 11 -3 30 -51 26 -36 49 23 35 34 -7 36 -6 27 11 -6 10 -18 22 -27 27
-12 7 -15 18 -10 47 8 46 23 65 53 65 34 0 31 30 -6 65 -38 36 -39 73 -4 106
14 13 35 42 45 65 25 52 58 89 70 77 5 -5 18 -40 29 -77 33 -115 65 -145 177
-166 92 -18 177 0 218 44 17 18 29 41 27 50 -3 14 1 16 25 10 68 -17 99 -39
69 -50 -8 -3 -12 -12 -9 -21 3 -8 6 -25 7 -37 1 -11 9 -32 19 -46 l17 -24 16
22 c23 33 124 30 124 -4 0 -8 -6 -14 -13 -14 -20 0 -47 -33 -47 -56 0 -14 2
-16 9 -6 6 10 10 5 14 -17 4 -17 5 -36 3 -43 -3 -7 -7 -28 -10 -47 l-6 -34 18
24 c28 36 45 70 53 109 4 19 25 78 46 130 57 136 67 185 60 304 -3 56 -9 112
-13 125 -5 18 -4 22 6 16 10 -6 12 -1 7 24 -7 33 -61 119 -84 134 -7 4 -13 14
-13 22 0 8 -10 20 -22 26 -21 11 -21 13 -4 19 16 5 15 8 -10 24 -33 21 -98 88
-93 96 8 13 -98 79 -138 85 -25 4 -54 17 -70 31 -19 18 -37 24 -69 24 -46 0
-56 11 -26 30 16 11 16 11 0 6 -10 -3 -26 -9 -35 -13 -12 -5 -15 -2 -10 10 4
11 1 17 -9 17 -8 0 -12 5 -9 10 8 13 -11 11 -63 -8z m-2 -276 c180 -29 294
-79 325 -144 14 -28 33 -102 51 -202 3 -14 9 -26 15 -28 5 -2 9 -14 9 -28 0
-17 4 -22 15 -18 11 5 13 2 9 -9 -3 -9 -12 -13 -20 -10 -10 4 -14 -4 -15 -26
-1 -17 -3 -40 -4 -51 -1 -11 -3 -31 -4 -45 -1 -33 -23 -41 -72 -25 -27 9 -41
21 -45 36 -3 13 -12 28 -20 35 -14 12 -19 -1 -16 -43 1 -12 -7 -9 -31 13 -27
25 -29 31 -17 39 12 8 9 10 -12 10 -29 0 -46 15 -26 23 19 7 -73 44 -138 56
-32 6 -80 11 -108 11 -27 0 -63 4 -80 10 -17 5 -43 12 -58 15 -14 3 -41 17
-58 32 -18 14 -48 29 -68 32 -40 7 -60 41 -24 41 26 0 42 35 45 97 2 43 5 53
20 53 10 0 16 4 13 8 -3 5 3 18 14 29 10 12 17 23 14 26 -3 3 11 18 30 34 28
22 50 29 98 34 35 3 65 6 68 7 3 1 43 -5 90 -12z m437 -238 c-3 -8 -6 -5 -6 6
-1 11 2 17 5 13 3 -3 4 -12 1 -19z m-917 -38 c-15 -28 -24 -19 -16 16 5 19 10
24 17 17 8 -8 7 -18 -1 -33z m937 -32 c-2 -13 -4 -5 -4 17 -1 22 1 32 4 23 2
-10 2 -28 0 -40z m-602 -118 c-28 -12 -45 -12 -45 0 0 6 15 10 33 9 27 0 29
-2 12 -9z m405 -150 c0 -5 -4 -10 -10 -10 -5 0 -10 5 -10 10 0 6 5 10 10 10 6
0 10 -4 10 -10z m-854 -176 c-15 -16 -15 -14 -9 21 5 25 7 26 13 10 4 -11 2
-25 -4 -31z m114 -52 c0 -15 -11 -21 -27 -15 -12 5 -12 7 -1 14 17 11 28 11
28 1z"/>
<path d="M401 794 c0 -11 3 -14 6 -6 3 7 2 16 -1 19 -3 4 -6 -2 -5 -13z"/>
<path d="M792 703 c-10 -4 -5 -11 15 -24 34 -23 43 -24 43 -4 0 12 -31 37 -42
34 -2 0 -9 -3 -16 -6z"/>
<path d="M1426 593 c-3 -3 -6 -25 -6 -48 0 -37 2 -41 25 -40 28 0 45 19 45 49
0 16 -2 15 -20 -5 -16 -20 -19 -21 -20 -6 0 9 -5 17 -11 17 -8 0 -8 4 0 14 12
14 0 32 -13 19z"/>
<path d="M1277 392 c-26 -40 -37 -90 -17 -77 13 8 13 5 -5 -45 -8 -24 -13 -45
-10 -48 7 -7 74 48 98 81 l20 26 -22 18 c-13 10 -26 34 -29 52 l-7 34 -28 -41z"/>
</g>
</svg>
